<?xml version="1.0" encoding="UTF-8" standalone="no"?>
<svg
   xmlns:dc="http://purl.org/dc/elements/1.1/"
   xmlns:cc="http://creativecommons.org/ns#"
   xmlns:rdf="http://www.w3.org/1999/02/22-rdf-syntax-ns#"
   xmlns:svg="http://www.w3.org/2000/svg"
   xmlns="http://www.w3.org/2000/svg"
   xmlns:sodipodi="http://sodipodi.sourceforge.net/DTD/sodipodi-0.dtd"
   xmlns:inkscape="http://www.inkscape.org/namespaces/inkscape"
   version="1.1"
   x="0px"
   y="0px"
   viewBox="0 0 100 125"
   enable-background="new 0 0 100 100"
   xml:space="preserve"
   id="svg20"
   sodipodi:docname="Nutrition_111498.svg"
   inkscape:version="0.92.3 (2405546, 2018-03-11)"><metadata
     id="metadata26"><rdf:RDF><cc:Work
         rdf:about=""><dc:format>image/svg+xml</dc:format><dc:type
           rdf:resource="http://purl.org/dc/dcmitype/StillImage" /></cc:Work></rdf:RDF></metadata><defs
     id="defs24" /><sodipodi:namedview
     pagecolor="#ffffff"
     bordercolor="#666666"
     borderopacity="1"
     objecttolerance="10"
     gridtolerance="10"
     guidetolerance="10"
     inkscape:pageopacity="0"
     inkscape:pageshadow="2"
     inkscape:window-width="1920"
     inkscape:window-height="1017"
     id="namedview22"
     showgrid="false"
     inkscape:zoom="1.888"
     inkscape:cx="50"
     inkscape:cy="62.5"
     inkscape:window-x="-8"
     inkscape:window-y="-8"
     inkscape:window-maximized="1"
     inkscape:current-layer="svg20" /><rect
     style="fill:#0033a0;fill-opacity:1;stroke:#feffff;stroke-width:5.178545;stroke-linecap:round;stroke-linejoin:round;stroke-miterlimit:4;stroke-dasharray:none;stroke-opacity:1"
     id="rect833"
     width="108.3899"
     height="111.89188"
     x="-4.0167551"
     y="5.0744872"
     rx="21.478811"
     ry="26.775425" /><g
     id="g14"
     transform="translate(0,12)"
     style="fill:#ffffff;fill-opacity:1"><path
       d="m 48.944,27.756 c -0.191,-0.08 -0.318,-0.119 -0.383,-0.119 -0.064,0 -0.196,0.048 -0.404,0.143 -0.207,0.095 -0.311,0.208 -0.311,0.333 v 8.338 c 0,0.16 -0.093,0.303 -0.286,0.428 -0.189,0.128 -0.365,0.192 -0.523,0.192 -0.065,-0.032 -0.183,-0.097 -0.358,-0.192 -0.176,-0.095 -0.262,-0.189 -0.262,-0.285 V 28.16 c 0,-0.126 -0.094,-0.245 -0.285,-0.357 -0.191,-0.111 -0.351,-0.167 -0.476,-0.167 -0.509,0 -0.764,0.255 -0.764,0.763 v 7.624 c 0,0.253 -0.056,0.492 -0.167,0.713 -0.111,0.224 -0.309,0.334 -0.596,0.334 h -0.094 c -0.064,-0.064 -0.175,-0.126 -0.333,-0.192 -0.16,-0.063 -0.24,-0.125 -0.24,-0.189 v -8.387 c 0,-0.222 -0.094,-0.389 -0.285,-0.5 -0.191,-0.111 -0.382,-0.167 -0.573,-0.167 -0.127,0 -0.269,0.071 -0.429,0.214 -0.158,0.143 -0.238,0.293 -0.238,0.453 v 8.387 c 0,0.063 -0.094,0.142 -0.283,0.237 -0.193,0.095 -0.336,0.144 -0.431,0.144 -0.22,0 -0.389,-0.079 -0.5,-0.239 -0.113,-0.158 -0.167,-0.364 -0.167,-0.618 v -7.815 c 0,-0.191 -0.08,-0.366 -0.238,-0.525 -0.16,-0.157 -0.318,-0.237 -0.476,-0.237 -0.16,0 -0.327,0.048 -0.5,0.143 -0.174,0.095 -0.264,0.223 -0.264,0.381 v 9.815 c 0,0.764 0.287,1.47 0.86,2.122 0.571,0.65 1.141,1.152 1.716,1.5 v 32.306 c 0,0.604 0.283,1.11 0.856,1.523 0.572,0.414 1.128,0.619 1.667,0.619 0.605,0 1.121,-0.184 1.55,-0.547 0.429,-0.367 0.738,-0.865 0.931,-1.501 0.062,-5.435 0.094,-10.832 0.094,-16.201 0,-5.401 0.031,-10.847 0.095,-16.343 l 0.094,-0.094 0.382,-0.239 c 0.445,-0.412 0.874,-0.896 1.287,-1.453 0.413,-0.555 0.62,-1.151 0.62,-1.787 v -9.768 c -10e-4,-0.157 -0.097,-0.276 -0.286,-0.356 z"
       id="path2"
       inkscape:connector-curvature="0"
       style="fill:#ffffff;fill-opacity:1" /><path
       d="m 59.52,27.779 h -0.095 -0.287 -0.142 c -0.764,0 -1.492,0.143 -2.191,0.429 -0.7,0.287 -1.327,0.683 -1.884,1.192 -0.554,0.508 -0.999,1.104 -1.332,1.787 -0.336,0.683 -0.501,1.405 -0.501,2.168 v 12.291 c 0,0.827 0.214,1.613 0.643,2.359 0.43,0.747 0.896,1.404 1.407,1.977 v 23.921 c 0,0.031 0.015,0.095 0.047,0.189 0.029,0.094 0.078,0.174 0.144,0.239 0.253,0.54 0.555,0.96 0.905,1.262 0.348,0.302 0.823,0.452 1.429,0.452 0.634,0 1.214,-0.222 1.739,-0.667 0.525,-0.445 0.785,-0.985 0.785,-1.621 V 28.399 c 0,-0.127 -0.08,-0.262 -0.238,-0.405 -0.159,-0.143 -0.301,-0.215 -0.429,-0.215 z"
       id="path4"
       inkscape:connector-curvature="0"
       style="fill:#ffffff;fill-opacity:1" /><path
       d="m 18.009,25.823 c 1.546,0 2.839,-0.507 3.878,-1.522 1.039,-1.015 1.559,-2.295 1.559,-3.842 0,-1.45 -0.52,-2.741 -1.559,-3.878 -1.04,-1.135 -2.332,-1.704 -3.878,-1.704 -0.725,0 -1.412,0.158 -2.064,0.472 -0.654,0.314 -1.232,0.724 -1.74,1.232 -0.507,0.507 -0.907,1.101 -1.196,1.776 -0.291,0.677 -0.436,1.376 -0.436,2.102 0,1.546 0.543,2.827 1.632,3.842 1.086,1.015 2.356,1.522 3.804,1.522 z"
       id="path6"
       inkscape:connector-curvature="0"
       style="fill:#ffffff;fill-opacity:1" /><path
       d="M 27.869,29.337 C 27.046,28.784 26.188,28.348 25.294,28.034 24.402,27.72 23.64,27.563 23.011,27.563 H 12.937 c -0.823,0 -1.679,0.157 -2.571,0.471 -0.896,0.314 -1.705,0.737 -2.43,1.268 -0.725,0.532 -1.317,1.197 -1.775,1.993 -0.46,0.798 -0.689,1.657 -0.689,2.574 v 19.93 c 0,0.582 0.206,1.127 0.616,1.632 0.411,0.509 0.907,0.762 1.486,0.762 0.289,0 0.713,-0.146 1.269,-0.435 0.554,-0.291 0.832,-0.629 0.832,-1.014 V 36.985 c 0,-0.242 0.083,-0.422 0.254,-0.543 0.169,-0.12 0.373,-0.182 0.616,-0.182 0.193,0 0.385,0.05 0.58,0.145 0.193,0.097 0.291,0.289 0.291,0.58 v 46.824 c 0,0.676 0.289,1.243 0.869,1.703 0.58,0.459 1.185,0.688 1.81,0.688 0.678,0 1.367,-0.229 2.066,-0.688 0.7,-0.46 1.051,-1.125 1.051,-1.994 V 55.322 c 0.098,-0.048 0.171,-0.095 0.218,-0.146 l 0.436,-0.217 h 0.071 0.073 c 0.146,0.049 0.483,0.169 1.016,0.362 v 28.486 c 0,0.723 0.3,1.305 0.907,1.737 0.604,0.437 1.243,0.654 1.919,0.654 0.582,0 1.196,-0.182 1.849,-0.545 0.654,-0.36 0.979,-0.931 0.979,-1.703 V 37.129 c 0,-0.145 0.12,-0.326 0.362,-0.542 0.242,-0.218 0.458,-0.327 0.652,-0.327 0.096,0 0.252,0.05 0.471,0.145 0.218,0.097 0.325,0.243 0.325,0.435 v 17.323 c 0,0.534 0.242,0.941 0.725,1.232 0.483,0.291 0.918,0.437 1.307,0.437 0.578,0 1.098,-0.182 1.556,-0.546 0.459,-0.359 0.69,-0.857 0.69,-1.486 V 33.505 c 0,-0.771 -0.278,-1.522 -0.836,-2.247 -0.555,-0.724 -1.244,-1.365 -2.063,-1.921 z"
       id="path8"
       inkscape:connector-curvature="0"
       style="fill:#ffffff;fill-opacity:1" /><path
       d="m 81.87,25.823 c 1.545,0 2.837,-0.507 3.877,-1.522 1.039,-1.015 1.56,-2.295 1.56,-3.842 0,-1.45 -0.521,-2.741 -1.56,-3.878 -1.04,-1.135 -2.332,-1.704 -3.877,-1.704 -0.727,0 -1.414,0.158 -2.066,0.472 -0.652,0.314 -1.232,0.724 -1.739,1.232 -0.507,0.507 -0.906,1.101 -1.195,1.776 -0.291,0.677 -0.437,1.376 -0.437,2.102 0,1.546 0.543,2.827 1.632,3.842 1.086,1.015 2.355,1.522 3.805,1.522 z"
       id="path10"
       inkscape:connector-curvature="0"
       style="fill:#ffffff;fill-opacity:1" /><path
       d="m 93.793,31.259 c -0.557,-0.725 -1.245,-1.366 -2.064,-1.922 -0.823,-0.553 -1.68,-0.989 -2.576,-1.303 -0.892,-0.314 -1.655,-0.471 -2.28,-0.471 H 76.796 c -0.821,0 -1.679,0.157 -2.573,0.471 -0.894,0.314 -1.703,0.737 -2.428,1.268 -0.724,0.532 -1.318,1.197 -1.776,1.993 -0.46,0.798 -0.687,1.657 -0.687,2.574 v 19.93 c 0,0.582 0.203,1.127 0.616,1.632 0.408,0.509 0.905,0.762 1.484,0.762 0.289,0 0.713,-0.146 1.269,-0.435 0.555,-0.291 0.833,-0.629 0.833,-1.014 V 36.985 c 0,-0.242 0.083,-0.422 0.252,-0.543 0.171,-0.12 0.375,-0.182 0.618,-0.182 0.192,0 0.386,0.05 0.578,0.145 0.194,0.097 0.292,0.289 0.292,0.58 v 46.824 c 0,0.676 0.291,1.243 0.869,1.703 0.58,0.459 1.184,0.688 1.812,0.688 0.676,0 1.364,-0.229 2.064,-0.688 0.701,-0.46 1.05,-1.125 1.05,-1.994 V 55.322 c 0.099,-0.048 0.171,-0.095 0.219,-0.146 l 0.436,-0.217 h 0.071 0.074 c 0.144,0.049 0.481,0.169 1.015,0.362 v 28.486 c 0,0.723 0.3,1.305 0.906,1.737 0.602,0.437 1.243,0.654 1.92,0.654 0.581,0 1.195,-0.182 1.85,-0.545 0.652,-0.36 0.978,-0.931 0.978,-1.703 V 37.129 c 0,-0.145 0.12,-0.326 0.362,-0.542 0.241,-0.218 0.458,-0.327 0.652,-0.327 0.097,0 0.254,0.05 0.471,0.145 0.218,0.097 0.325,0.243 0.325,0.435 v 17.323 c 0,0.534 0.242,0.941 0.726,1.232 0.484,0.291 0.917,0.437 1.307,0.437 0.578,0 1.098,-0.182 1.558,-0.546 0.458,-0.359 0.688,-0.857 0.688,-1.486 V 33.505 c 0,-0.771 -0.278,-1.522 -0.834,-2.246 z"
       id="path12"
       inkscape:connector-curvature="0"
       style="fill:#ffffff;fill-opacity:1" /></g></svg>